<?xml version="1.0" encoding="UTF-8" standalone="no"?>
<!DOCTYPE svg PUBLIC "-//W3C//DTD SVG 1.1//EN" "http://www.w3.org/Graphics/SVG/1.1/DTD/svg11.dtd">
<svg width="100%" height="100%" viewBox="0 0 2084 2084" version="1.1" xmlns="http://www.w3.org/2000/svg" xmlns:xlink="http://www.w3.org/1999/xlink" xml:space="preserve" xmlns:serif="http://www.serif.com/" style="fill-rule:evenodd;clip-rule:evenodd;stroke-linejoin:round;stroke-miterlimit:2;">
    <g transform="matrix(1,0,0,1,0,-4641)">
        <g id="Favicon---V1" serif:id="Favicon - V1" transform="matrix(0.878491,0,0,0.998634,0,5.867944)">
            <rect x="0" y="4641.473" width="2371.492" height="2086.183" style="fill:none;"/>
            <g transform="matrix(0.769985,0,0,0.769985,389.685746,1296.999031)">
                <g transform="matrix(4.742983,0,0,4.172367,-315.888883,5741.35883)">
                    <rect x="0" y="132.035" width="569.158" height="41.264" style="fill:rgb(142,19,21);"/>
                </g>
                <g transform="matrix(4.742983,0,0,4.172367,501.40161,5386.151487)">
                    <path d="M0,94.43C-1.112,138.043 -30.164,178.594 -81.789,179.664C-126.248,180.585 -168.478,138.529 -169.863,89.813C-171.055,47.878 -156.469,33.359 -145.848,22.459C-141.175,17.664 -138.374,15.313 -132.078,10.966C-123.418,4.986 -88.581,-11.6 -99.963,-32.674C-104.291,-40.687 -115.734,-54.481 -165.485,-74.871C-169.875,-76.67 -175.106,-78.157 -172.959,-81.342C-169.714,-86.155 -157.505,-83.166 -156.347,-83.019C-102.112,-76.143 -62.168,-38.61 -57.698,-34.494C-51.734,-29.002 -40.912,-17.433 -38.999,-15.042C-27.944,-1.224 -20.197,8.308 -10.951,30.72C-6.246,42.127 -1.636,55.979 -0.65,66.363C1.072,84.489 0.11,90.129 0,94.43" style="fill:rgb(142,19,21);fill-rule:nonzero;"/>
                </g>
                <g transform="matrix(4.742983,0,0,4.172367,1349.939826,5838.3626)">
                    <path d="M0,-161.499C-16.629,-201.833 -58.257,-229.32 -106.853,-211.864C-148.704,-196.832 -173.11,-142.459 -156.989,-96.467C-143.112,-56.876 -124.3,-48.531 -110.484,-42.148C-104.406,-39.339 -100.95,-38.145 -93.516,-36.336C-83.29,-33.847 -44.826,-30.81 -47.923,-7.06C-49.1,1.97 -54.856,18.944 -94.032,55.771C-97.488,59.02 -101.842,62.279 -98.698,64.486C-93.947,67.821 -83.613,60.665 -82.584,60.114C-34.391,34.305 -10.503,-15.027 -7.799,-20.469C-4.192,-27.729 1.779,-42.403 2.711,-45.32C8.096,-62.176 11.923,-73.847 12.547,-98.084C12.864,-110.419 12.217,-125.004 9.426,-135.054C4.555,-152.598 1.64,-157.522 0,-161.499" style="fill:rgb(142,19,21);fill-rule:nonzero;"/>
                </g>
                <g transform="matrix(4.742983,0,0,4.172367,1566.327532,5386.151487)">
                    <path d="M0,94.43C1.112,138.043 30.164,178.594 81.789,179.664C126.248,180.585 168.478,138.529 169.863,89.813C171.055,47.878 156.469,33.359 145.848,22.459C141.175,17.664 138.374,15.313 132.079,10.966C123.418,4.986 88.581,-11.6 99.963,-32.674C104.291,-40.687 115.734,-54.481 165.485,-74.871C169.875,-76.67 175.106,-78.157 172.959,-81.342C169.714,-86.155 157.505,-83.166 156.347,-83.019C102.112,-76.143 62.168,-38.61 57.698,-34.494C51.734,-29.002 40.912,-17.433 38.999,-15.042C27.944,-1.224 20.197,8.308 10.951,30.72C6.246,42.127 1.636,55.979 0.65,66.363C-1.072,84.489 -0.11,90.129 0,94.43" style="fill:rgb(142,19,21);fill-rule:nonzero;"/>
                </g>
            </g>
        </g>
    </g>
</svg>
