<?xml version="1.0" encoding="UTF-8" standalone="no"?>
<!DOCTYPE svg PUBLIC "-//W3C//DTD SVG 1.1//EN" "http://www.w3.org/Graphics/SVG/1.1/DTD/svg11.dtd">
<svg width="100%" height="100%" viewBox="0 0 2084 2084" version="1.1" xmlns="http://www.w3.org/2000/svg" xmlns:xlink="http://www.w3.org/1999/xlink" xml:space="preserve" xmlns:serif="http://www.serif.com/" style="fill-rule:evenodd;clip-rule:evenodd;stroke-linejoin:round;stroke-miterlimit:2;">
    <g transform="matrix(1,0,0,1,-2441.622155,-4641)">
        <g id="Favicon---V2" serif:id="Favicon - V2" transform="matrix(0.878491,0,0,0.998634,2441.622155,5.867944)">
            <rect x="0" y="4641.473" width="2371.492" height="2086.183" style="fill:none;"/>
            <g transform="matrix(4.777084,0,0,4.777084,-8206.196699,-25844.775215)">
                <g transform="matrix(4.742983,0,0,4.172367,0,6261.118899)">
                    <rect x="376.352" y="50" width="76.328" height="12.5" style="fill:rgb(142,19,21);"/>
                </g>
                <g transform="matrix(4.742983,0,0,4.172367,1785.027469,6730.508897)">
                    <path d="M0,-38.499L0,0L76.329,0L76.329,-38.499L0,-38.499ZM12.5,-26L63.829,-26L63.829,-12.5L12.5,-12.5L12.5,-26Z" style="fill:rgb(142,19,21);fill-rule:nonzero;"/>
                </g>
            </g>
        </g>
    </g>
</svg>
